# xmcd CD database file
#
# Track frame offsets:
#	150
#	38862
#	56212
#	88972
#	119637
#	149825
#	160835
#	185455
#	216262
#	241300
#	267422
#
# Disc length: 4060 seconds
#
# Revision: 1
# Processed by: cddbd v1.4PL0 Copyright (c) Steve Scherf et al.
# Submitted via: CDex 1.40Beta8
#
DISCID=b10fda0b
DTITLE=YANNI - YANNI TRIBUTE
DYEAR=1900
DGENRE=
TTITLE0=Deliverance
TTITLE1=Adagio in minor
TTITLE2=Renegade
TTITLE3=Dance with a stranger
TTITLE4=Tribute
TTITLE5=Prelude
TTITLE6=Love is all
TTITLE7=Southers exposure
TTITLE8=Waltz in 7-8
TTITLE9=Nightingale
TTITLE10=Niki Nana (we're one)
EXTD=The first new music from YANNI live at the Acropolis
EXTT0=
EXTT1=
EXTT2=
EXTT3=
EXTT4=
EXTT5=
EXTT6=
EXTT7=
EXTT8=
EXTT9=
EXTT10=
PLAYORDER=
